<svg width="369" height="149" viewBox="0 0 369 149" fill="none" xmlns="http://www.w3.org/2000/svg">
<path d="M119.922 0.494629L137.727 18.2992L23.2875 132.738L5.48296 114.934L119.922 0.494629Z" fill="#EB3131"/>
<path d="M364.087 115.282L346.282 133.087L239 25.8046L256.805 7.99999L364.087 115.282Z" fill="#EB3131"/>
<path d="M192.557 72.7527L174.753 90.5573L102.765 18.5692L120.569 0.764681L192.557 72.7527Z" fill="#EB3131"/>
<path d="M184.805 100.793L167 82.988L249.358 0.630463L267.162 18.435L184.805 100.793Z" fill="#EB3131"/>
<path d="M118.489 148.108L100.685 130.304L147.988 83L165.793 100.805L118.489 148.108Z" fill="#EB3131"/>
<path d="M71.7013 101.506L89.5059 83.7014L135.944 130.14L118.14 147.944L71.7013 101.506Z" fill="#EB3131"/>
<path d="M0.76123 30.5658L18.5658 12.7612L55.0541 49.2495L37.2495 67.0541L0.76123 30.5658Z" fill="#EB3131"/>
<path d="M350.488 13L368.293 30.8046L331.805 67.2929L314 49.4883L350.488 13Z" fill="#EB3131"/>
<path d="M247.018 147.646L229.213 129.841L276.567 82.4872L294.371 100.292L247.018 147.646Z" fill="#EB3131"/>
<path d="M201 101.813L218.805 84.0089L264.473 129.677L246.668 147.482L201 101.813Z" fill="#EB3131"/>
</svg>
